<svg xmlns="http://www.w3.org/2000/svg" xmlns:xlink="http://www.w3.org/1999/xlink" viewBox="0,0,256,256" width="64px" height="64px" fill-rule="nonzero" fill="none"><g fill="none" fill-rule="nonzero" stroke="none" stroke-width="1" stroke-linecap="butt" stroke-linejoin="miter" stroke-miterlimit="10" stroke-dasharray="" stroke-dashoffset="0" font-family="none" font-weight="none" font-size="none" text-anchor="none" style="mix-blend-mode: normal"><g transform="scale(2.56,2.56)"><path d="M13,27c-1.105,0 -2,0.895 -2,2c0,1.105 0.895,2 2,2c1.105,0 2,-0.895 2,-2c0,-1.105 -0.895,-2 -2,-2z" fill="#ee3e54"></path><path d="M77,12c-0.551,0 -1,0.449 -1,1c0,0.551 0.449,1 1,1c0.551,0 1,-0.449 1,-1c0,-0.551 -0.449,-1 -1,-1z" fill="#f1bc19"></path><path d="M50,13c-20.434,0 -37,16.566 -37,37c0,20.434 16.566,37 37,37c20.434,0 37,-16.566 37,-37c0,-20.434 -16.566,-37 -37,-37z" fill="#f8dca0"></path><path d="M83,11c-2.211,0 -4,1.789 -4,4c0,2.211 1.789,4 4,4c2.211,0 4,-1.789 4,-4c0,-2.211 -1.789,-4 -4,-4z" fill="#f1bc19"></path><path d="M87,22c-1.105,0 -2,0.895 -2,2c0,1.105 0.895,2 2,2c1.105,0 2,-0.895 2,-2c0,-1.105 -0.895,-2 -2,-2z" fill="#ee3e54"></path><path d="M81,74c-1.105,0 -2,0.895 -2,2c0,1.105 0.895,2 2,2c1.105,0 2,-0.895 2,-2c0,-1.105 -0.895,-2 -2,-2zM15,59c-2.211,0 -4,1.789 -4,4c0,2.211 1.789,4 4,4c2.211,0 4,-1.789 4,-4c0,-2.211 -1.789,-4 -4,-4z" fill="#fbcd59"></path><path d="M25,85c-1.105,0 -2,0.895 -2,2c0,1.105 0.895,2 2,2c1.105,0 2,-0.895 2,-2c0,-1.105 -0.895,-2 -2,-2z" fill="#ee3e54"></path><path d="M25.5,30c-1.379,0 -2.5,1.121 -2.5,2.5c0,1.379 1.121,2.5 2.5,2.5c1.379,0 2.5,-1.121 2.5,-2.5c0,-1.379 -1.121,-2.5 -2.5,-2.5z" fill="#ffffff"></path><path d="M17,54c-0.551,0 -1,0.449 -1,1c0,0.551 0.449,1 1,1c0.551,0 1,-0.449 1,-1c0,-0.551 -0.449,-1 -1,-1z" fill="#f1bc19"></path><path d="M80,33c-0.551,0 -1,0.449 -1,1c0,0.551 0.449,1 1,1c0.551,0 1,-0.449 1,-1c0,-0.551 -0.449,-1 -1,-1z" fill="#ffffff"></path><path d="M60.862,46.854l-10.15,-15.564c-0.335,-0.514 -1.088,-0.514 -1.423,0l-10.15,15.564c-0.091,0.138 -0.139,0.299 -0.139,0.464v7.698c0,0.469 0.38,0.85 0.85,0.85h20.3c0.469,0 0.85,-0.38 0.85,-0.85v-7.698c0,-0.165 -0.048,-0.326 -0.138,-0.464z" fill="#ffffff"></path><path d="M34.428,47.088l-16.535,-5.088c-0.681,-0.21 -1.281,0.499 -0.963,1.136l6.205,12.41c0.137,0.274 0.418,0.448 0.725,0.448h10.33c0.447,0 0.81,-0.363 0.81,-0.81v-7.322c0,-0.355 -0.232,-0.669 -0.572,-0.774z" fill="#ffffff"></path><path d="M16.447,41.979l2.17,4.276l3.702,-2.553z" fill="#a1a1ca"></path><path d="M34.319,47.532l-11.234,8.553l12.192,-0.319l0.063,-8.298z" fill="#a1a1ca"></path><path d="M17.675,42.901l16.925,5.208v7.491h-10.726l-6.199,-12.699M16.225,41.021c-0.45,0 -0.791,0.483 -0.574,0.927l7.172,14.691c0.109,0.221 0.333,0.361 0.579,0.361h11.954c0.356,0 0.644,-0.288 0.644,-0.644v-8.806c0,-0.283 -0.184,-0.532 -0.454,-0.615l-19.127,-5.885c-0.066,-0.02 -0.131,-0.029 -0.194,-0.029z" fill="#472b29"></path><path d="M24.042,62.3c-0.613,0 -1.154,-0.354 -1.314,-0.86c-0.137,-0.433 -0.074,-0.861 0.179,-1.207c0.249,-0.339 0.631,-0.534 1.05,-0.534h52c0.613,0 1.154,0.354 1.314,0.86c0.137,0.433 0.074,0.861 -0.179,1.207c-0.249,0.339 -0.631,0.534 -1.05,0.534z" fill="#a1a1ca"></path><path d="M75.958,60.4c0.297,0 0.581,0.163 0.647,0.371c0.087,0.275 0.006,0.468 -0.077,0.582c-0.115,0.157 -0.292,0.247 -0.485,0.247h-52.001c-0.297,0 -0.581,-0.163 -0.647,-0.371c-0.087,-0.275 -0.006,-0.468 0.077,-0.582c0.115,-0.157 0.292,-0.247 0.485,-0.247h52.001M75.958,59h-52c-1.316,0 -2.335,1.271 -1.897,2.652c0.264,0.833 1.107,1.348 1.981,1.348h52.001c1.316,0 2.335,-1.271 1.897,-2.652c-0.265,-0.833 -1.108,-1.348 -1.982,-1.348z" fill="#472b29"></path><path d="M31.952,49.563c-0.076,0 -0.151,-0.035 -0.2,-0.1c-0.083,-0.11 -0.06,-0.267 0.05,-0.35l2.857,-2.143c0.11,-0.083 0.267,-0.061 0.35,0.05c0.083,0.11 0.06,0.267 -0.05,0.35l-2.857,2.143c-0.045,0.034 -0.098,0.05 -0.15,0.05z" fill="#472b29"></path><path d="M23.234,56.101c-0.076,0 -0.151,-0.035 -0.2,-0.1c-0.083,-0.11 -0.06,-0.267 0.05,-0.35l6.657,-4.992c0.11,-0.083 0.267,-0.061 0.35,0.05c0.083,0.11 0.06,0.267 -0.05,0.35l-6.657,4.992c-0.045,0.034 -0.098,0.05 -0.15,0.05z" fill="#472b29"></path><path d="M18.565,46.763c-0.076,0 -0.151,-0.035 -0.2,-0.1c-0.083,-0.11 -0.06,-0.267 0.05,-0.35l4.104,-3.078c0.11,-0.083 0.266,-0.061 0.35,0.05c0.083,0.11 0.06,0.267 -0.05,0.35l-4.104,3.078c-0.045,0.033 -0.098,0.05 -0.15,0.05z" fill="#472b29"></path><path d="M65.572,47.093l16.535,-5.088c0.681,-0.21 1.281,0.499 0.963,1.136l-6.205,12.41c-0.137,0.276 -0.418,0.449 -0.725,0.449h-10.33c-0.447,0 -0.81,-0.363 -0.81,-0.81v-7.322c0,-0.356 0.232,-0.67 0.572,-0.775z" fill="#ffffff"></path><path d="M83.137,41.979l-2.17,4.276l-3.702,-2.553z" fill="#a1a1ca"></path><path d="M65.267,47.532l11.387,8.553l-12.358,-0.319l-0.065,-8.298z" fill="#a1a1ca"></path><path d="M82.325,42.901l-6.2,12.699h-10.725v-7.491l16.925,-5.208M83.775,41.021c-0.063,0 -0.128,0.009 -0.194,0.03l-19.127,5.885c-0.27,0.083 -0.454,0.332 -0.454,0.615v8.806c0,0.355 0.288,0.643 0.644,0.643h11.954c0.246,0 0.47,-0.14 0.578,-0.361l7.172,-14.691c0.218,-0.444 -0.123,-0.927 -0.573,-0.927z" fill="#472b29"></path><path d="M67.632,49.563c-0.052,0 -0.105,-0.016 -0.15,-0.05l-2.856,-2.143c-0.11,-0.083 -0.133,-0.24 -0.05,-0.35c0.084,-0.11 0.241,-0.133 0.35,-0.05l2.856,2.143c0.11,0.083 0.133,0.24 0.05,0.35c-0.049,0.065 -0.124,0.1 -0.2,0.1z" fill="#472b29"></path><path d="M76.35,56.101c-0.052,0 -0.105,-0.016 -0.15,-0.05l-2.929,-2.197c-0.11,-0.083 -0.133,-0.24 -0.05,-0.35c0.084,-0.111 0.241,-0.133 0.35,-0.05l2.929,2.197c0.11,0.083 0.133,0.24 0.05,0.35c-0.049,0.066 -0.124,0.1 -0.2,0.1z" fill="#472b29"></path><path d="M71.613,52.548c-0.052,0 -0.105,-0.016 -0.15,-0.05l-1.919,-1.44c-0.11,-0.083 -0.133,-0.24 -0.05,-0.35c0.083,-0.11 0.24,-0.133 0.35,-0.05l1.919,1.44c0.11,0.083 0.133,0.24 0.05,0.35c-0.049,0.066 -0.124,0.1 -0.2,0.1z" fill="#472b29"></path><path d="M81.02,46.763c-0.052,0 -0.105,-0.016 -0.15,-0.05l-4.104,-3.078c-0.11,-0.083 -0.133,-0.24 -0.05,-0.35c0.083,-0.11 0.241,-0.133 0.35,-0.05l4.104,3.078c0.11,0.083 0.133,0.24 0.05,0.35c-0.05,0.065 -0.125,0.1 -0.2,0.1z" fill="#472b29"></path><g fill="#a1a1ca"><rect x="39" y="47.401" width="22" height="8.599"></rect></g><g fill="#472b29"><path d="M47.5,47.75h-4c-0.138,0 -0.25,-0.112 -0.25,-0.25c0,-0.138 0.112,-0.25 0.25,-0.25h4c0.138,0 0.25,0.112 0.25,0.25c0,0.138 -0.112,0.25 -0.25,0.25z"></path></g><g fill="#472b29"><path d="M41.5,47.75h-3c-0.138,0 -0.25,-0.112 -0.25,-0.25c0,-0.138 0.112,-0.25 0.25,-0.25h3c0.138,0 0.25,0.112 0.25,0.25c0,0.138 -0.112,0.25 -0.25,0.25z"></path></g><g fill="#472b29"><path d="M61.5,47.75h-12c-0.138,0 -0.25,-0.112 -0.25,-0.25c0,-0.138 0.112,-0.25 0.25,-0.25h12c0.138,0 0.25,0.112 0.25,0.25c0,0.138 -0.112,0.25 -0.25,0.25z"></path></g><g fill="#a1a1ca"><path d="M49.94,30.55l-3.127,4.915l6.127,-0.064z"></path></g><g fill="#472b29"><path d="M53.5,35.75h-7c-0.138,0 -0.25,-0.112 -0.25,-0.25c0,-0.138 0.112,-0.25 0.25,-0.25h7c0.138,0 0.25,0.112 0.25,0.25c0,0.138 -0.112,0.25 -0.25,0.25z"></path></g><g fill="#472b29"><path d="M50,31.563l10.6,16.253v7.784h-21.2v-7.784l10.6,-16.253M50,29.77c-0.297,0 -0.594,0.14 -0.776,0.42l-11.073,16.979c-0.099,0.151 -0.151,0.327 -0.151,0.507v8.397c0,0.512 0.415,0.927 0.927,0.927h22.146c0.512,0 0.927,-0.415 0.927,-0.927v-8.397c0,-0.18 -0.052,-0.356 -0.151,-0.506l-11.073,-16.98c-0.182,-0.28 -0.479,-0.42 -0.776,-0.42z"></path></g><g fill="#472b29"><path d="M31.255,66h-7.755c-0.276,0 -0.5,-0.224 -0.5,-0.5c0,-0.276 0.224,-0.5 0.5,-0.5h7.755c0.276,0 0.5,0.224 0.5,0.5c0,0.276 -0.223,0.5 -0.5,0.5z"></path></g><g fill="#472b29"><path d="M42.745,66h-7.596c-0.276,0 -0.5,-0.224 -0.5,-0.5c0,-0.276 0.224,-0.5 0.5,-0.5h7.596c0.276,0 0.5,0.224 0.5,0.5c0,0.276 -0.224,0.5 -0.5,0.5z"></path></g><g fill="#472b29"><path d="M76.5,66h-29.925c-0.276,0 -0.5,-0.224 -0.5,-0.5c0,-0.276 0.224,-0.5 0.5,-0.5h29.925c0.276,0 0.5,0.224 0.5,0.5c0,0.276 -0.224,0.5 -0.5,0.5z"></path></g></g></g></svg>