<svg xmlns="http://www.w3.org/2000/svg" xmlns:xlink="http://www.w3.org/1999/xlink" viewBox="0,0,256,256" width="64px" height="64px" fill-rule="nonzero" fill="none"><g fill="none" fill-rule="nonzero" stroke="none" stroke-width="1" stroke-linecap="butt" stroke-linejoin="miter" stroke-miterlimit="10" stroke-dasharray="" stroke-dashoffset="0" font-family="none" font-weight="none" font-size="none" text-anchor="none" style="mix-blend-mode: normal"><g transform="scale(2.56,2.56)"><circle cx="79" cy="13" r="1" fill="#f1bc19"></circle><circle cx="50" cy="50" r="37" fill="#f8dca0"></circle><circle cx="85" cy="15" r="4" fill="#f1bc19"></circle><circle cx="13" cy="29" r="2" fill="#00a5a5"></circle><circle cx="80" cy="78" r="2" fill="#fbcd59"></circle><circle cx="26" cy="76" r="4" fill="#fbcd59"></circle><circle cx="27" cy="87" r="2" fill="#00a5a5"></circle><circle cx="58.5" cy="80.5" r="2.5" fill="#ffffff"></circle><circle cx="23.029" cy="68.971" r="0.971" fill="#ffffff"></circle><circle cx="85" cy="31" r="1" fill="#f1bc19"></circle><circle cx="78" cy="68" r="2" fill="#ffffff"></circle><circle cx="79" cy="34" r="1" fill="#ffffff"></circle><path d="M50,34c-1.103,0 -2,-0.897 -2,-2v-4c0,-1.103 0.897,-2 2,-2c1.103,0 2,0.897 2,2v4c0,1.103 -0.897,2 -2,2z" fill="#f1bc19"></path><path d="M50,26.4c0.882,0 1.6,0.718 1.6,1.6v4c0,0.882 -0.718,1.6 -1.6,1.6c-0.882,0 -1.6,-0.718 -1.6,-1.6v-4c0,-0.882 0.718,-1.6 1.6,-1.6M50,25c-1.657,0 -3,1.343 -3,3v4c0,1.657 1.343,3 3,3c1.657,0 3,-1.343 3,-3v-4c0,-1.657 -1.343,-3 -3,-3z" fill="#472b29"></path><path d="M61,44c-1.103,0 -2,-0.897 -2,-2v-4c0,-1.103 0.897,-2 2,-2c1.103,0 2,0.897 2,2v4c0,1.103 -0.897,2 -2,2z" fill="#88ae45"></path><path d="M61,36.4c0.882,0 1.6,0.718 1.6,1.6v4c0,0.882 -0.718,1.6 -1.6,1.6c-0.882,0 -1.6,-0.718 -1.6,-1.6v-4c0,-0.882 0.718,-1.6 1.6,-1.6M61,35c-1.657,0 -3,1.343 -3,3v4c0,1.657 1.343,3 3,3c1.657,0 3,-1.343 3,-3v-4c0,-1.657 -1.343,-3 -3,-3z" fill="#472b29"></path><path d="M39,64c-1.103,0 -2,-0.897 -2,-2v-4c0,-1.103 0.897,-2 2,-2c1.103,0 2,0.897 2,2v4c0,1.103 -0.897,2 -2,2z" fill="#ee3e54"></path><path d="M39,56.4c0.882,0 1.6,0.718 1.6,1.6v4c0,0.882 -0.718,1.6 -1.6,1.6c-0.882,0 -1.6,-0.718 -1.6,-1.6v-4c0,-0.882 0.718,-1.6 1.6,-1.6M39,55c-1.657,0 -3,1.343 -3,3v4c0,1.657 1.343,3 3,3c1.657,0 3,-1.343 3,-3v-4c0,-1.657 -1.343,-3 -3,-3z" fill="#472b29"></path><path d="M28,54c-1.103,0 -2,-0.897 -2,-2v-4c0,-1.103 0.897,-2 2,-2c1.103,0 2,0.897 2,2v4c0,1.103 -0.897,2 -2,2z" fill="#78a0cf"></path><path d="M28,46.4c0.882,0 1.6,0.718 1.6,1.6v4c0,0.882 -0.718,1.6 -1.6,1.6c-0.882,0 -1.6,-0.718 -1.6,-1.6v-4c0,-0.882 0.718,-1.6 1.6,-1.6M28,45c-1.657,0 -3,1.343 -3,3v4c0,1.657 1.343,3 3,3c1.657,0 3,-1.343 3,-3v-4c0,-1.657 -1.343,-3 -3,-3z" fill="#472b29"></path><path d="M72,54c-1.103,0 -2,-0.897 -2,-2v-4c0,-1.103 0.897,-2 2,-2c1.103,0 2,0.897 2,2v4c0,1.103 -0.897,2 -2,2z" fill="#78a0cf"></path><path d="M72,46.4c0.882,0 1.6,0.718 1.6,1.6v4c0,0.882 -0.718,1.6 -1.6,1.6c-0.882,0 -1.6,-0.718 -1.6,-1.6v-4c0,-0.882 0.718,-1.6 1.6,-1.6M72,45c-1.657,0 -3,1.343 -3,3v4c0,1.657 1.343,3 3,3c1.657,0 3,-1.343 3,-3v-4c0,-1.657 -1.343,-3 -3,-3z" fill="#472b29"></path><path d="M61,64c-1.103,0 -2,-0.897 -2,-2v-11c0,-1.103 0.897,-2 2,-2c1.103,0 2,0.897 2,2v11c0,1.103 -0.897,2 -2,2z" fill="#88ae45"></path><path d="M61,49.4c0.882,0 1.6,0.718 1.6,1.6v11c0,0.882 -0.718,1.6 -1.6,1.6c-0.882,0 -1.6,-0.718 -1.6,-1.6v-11c0,-0.882 0.718,-1.6 1.6,-1.6M61,48c-1.657,0 -3,1.343 -3,3v11c0,1.657 1.343,3 3,3c1.657,0 3,-1.343 3,-3v-11c0,-1.657 -1.343,-3 -3,-3z" fill="#472b29"></path><path d="M39,51c-1.103,0 -2,-0.897 -2,-2v-11c0,-1.103 0.897,-2 2,-2c1.103,0 2,0.897 2,2v11c0,1.103 -0.897,2 -2,2z" fill="#ee3e54"></path><path d="M39,36.4c0.882,0 1.6,0.718 1.6,1.6v11c0,0.882 -0.718,1.6 -1.6,1.6c-0.882,0 -1.6,-0.718 -1.6,-1.6v-11c0,-0.882 0.718,-1.6 1.6,-1.6M39,35c-1.657,0 -3,1.343 -3,3v11c0,1.657 1.343,3 3,3c1.657,0 3,-1.343 3,-3v-11c0,-1.657 -1.343,-3 -3,-3z" fill="#472b29"></path><path d="M50,74c-1.103,0 -2,-0.897 -2,-2v-4c0,-1.103 0.897,-2 2,-2c1.103,0 2,0.897 2,2v4c0,1.103 -0.897,2 -2,2z" fill="#f1bc19"></path><path d="M50,66.4c0.882,0 1.6,0.718 1.6,1.6v4c0,0.882 -0.718,1.6 -1.6,1.6c-0.882,0 -1.6,-0.718 -1.6,-1.6v-4c0,-0.882 0.718,-1.6 1.6,-1.6M50,65c-1.657,0 -3,1.343 -3,3v4c0,1.657 1.343,3 3,3c1.657,0 3,-1.343 3,-3v-4c0,-1.657 -1.343,-3 -3,-3z" fill="#472b29"></path><path d="M50,61c-1.103,0 -2,-0.897 -2,-2v-18c0,-1.103 0.897,-2 2,-2c1.103,0 2,0.897 2,2v18c0,1.103 -0.897,2 -2,2z" fill="#f1bc19"></path><path d="M50,39.4c0.882,0 1.6,0.718 1.6,1.6v18c0,0.882 -0.718,1.6 -1.6,1.6c-0.882,0 -1.6,-0.718 -1.6,-1.6v-18c0,-0.882 0.718,-1.6 1.6,-1.6M50,38c-1.657,0 -3,1.343 -3,3v18c0,1.657 1.343,3 3,3c1.657,0 3,-1.343 3,-3v-18c0,-1.657 -1.343,-3 -3,-3z" fill="#472b29"></path></g></g></svg>