<?xml version="1.0" encoding="utf-8"?>
<!-- Generator: Adobe Illustrator 23.1.1, SVG Export Plug-In . SVG Version: 6.00 Build 0)  -->
<svg version="1.1" id="Layer_1" xmlns="http://www.w3.org/2000/svg" xmlns:xlink="http://www.w3.org/1999/xlink" x="0px" y="0px"
	 viewBox="0 0 435 120" style="enable-background:new 0 0 435 120;" xml:space="preserve">
<style type="text/css">
	.st0{fill-rule:evenodd;clip-rule:evenodd;fill:#EC1C24;}
	.st1{fill:#4D4E56;}
</style>
<title>flicron-logo-web</title>
<g>
	<path class="st0" d="M417.4,102.4c23.4-23.4,23.4-61.4,0-84.8s-61.4-23.4-84.8,0c-11.2,11.2-17,25.7-17.5,40.3l0,0v50
		c-0.5,6.3,2.7,13,13.1,12h44.9c1.3,0,2.5,0,3.8,0h0.1l0,0C391.7,119.4,406.2,113.6,417.4,102.4L417.4,102.4z M381,63.6
		c1.1-1.2,1.7-2.7,1.8-4.3h24.6c0.1,0.6,0,0.7,0.9,1.6c0.9,0.9,3.5,1.3,4.8,0s1.3-3.5,0-4.8s-3.9-0.9-4.8,0s-0.8,1.1-0.9,1.7h-24.6
		c-0.1-1.5-0.7-3-1.8-4.3l14.2-14.2c2.4,1.9,6,1.8,8.2-0.5c2.4-2.4,2.4-6.3,0-8.7s-6.3-2.4-8.7,0c-2.2,2.2-2.4,5.7-0.5,8.1L380,52.6
		c-1.2-1-2.7-1.6-4.1-1.7V25.7c0.6-0.1,0.7,0,1.6-0.9s1.3-3.5,0-4.8c-1.3-1.3-3.5-1.3-4.8,0s-0.9,3.9,0,4.8s1.1,0.8,1.7,0.9v25.1
		c-1.6,0.1-3.1,0.8-4.4,1.8l-14-14c2.1-2.5,2-6.3-0.4-8.6c-2.5-2.5-6.5-2.5-9,0s-2.5,6.5,0,9c2.3,2.3,5.9,2.5,8.4,0.6l14.1,14.1
		c-1,1.2-1.5,2.6-1.6,4.1h-24.6c-0.1-0.6,0-0.8-0.9-1.7s-3.5-1.3-4.8,0s-1.3,3.5,0,4.8s3.9,0.9,4.8,0s0.8-1,0.9-1.6h24.6
		c0.1,1.5,0.7,2.9,1.7,4.1L356.6,76c-3.4-2.8-8.3-2.6-11.5,0.5c-3.3,3.3-3.3,8.7,0,12.1c3.3,3.3,8.7,3.3,12.1,0
		c3.2-3.2,3.3-8.2,0.5-11.6l12.6-12.6c1.2,1,2.7,1.6,4.3,1.8v25.1c-0.6,0.1-0.8,0-1.7,0.9c-0.9,0.9-1.3,3.5,0,4.8s3.5,1.3,4.8,0
		s0.9-3.9,0-4.8s-1-0.8-1.6-0.9v-25c1.4-0.1,2.8-0.7,4-1.6l10.6,10.6c-3.8,4.4-3.6,11.1,0.6,15.3c4.4,4.4,11.6,4.4,16,0
		s4.4-11.6,0-16c-4.3-4.3-11.1-4.4-15.6-0.4L381,63.6L381,63.6z"/>
	<g>
		<path class="st1" d="M18.1,53.5c2.5,0,4.5-1.9,4.5-4.2s-2-4.2-4.5-4.2s-4.5,1.9-4.5,4.2C13.7,51.7,15.7,53.5,18.1,53.5z"/>
		<path class="st1" d="M27.9,70.7c0,8.8-3.4,11.6-9.1,11.6c-4.5,0-9.2-2.4-9.2-11.8c0-3.7,0.6-7.8,1.8-11.7l-8.8,1.5
			C1.5,63.9,1,67.7,1,71.2c0,12.2,6.8,17.3,17.1,17.3c12.4,0,18.3-6.2,18.3-18.3V45.9h-8.6L27.9,70.7L27.9,70.7z"/>
		<path class="st1" d="M74.5,47.2c0,0-5.9-2.1-13.6-2.1c-11.9,0-17.2,7.3-17.2,15.3c0,8.6,4.7,14.1,17.4,14.1h5.1v0.9
			c0,5.7-4.5,8.1-11.2,8.1c-5.1,0-10.1-1-10.1-1l-0.5,6.6c0,0,5,0.8,9.9,0.8c14.5,0,20.3-6.8,20.3-15.2L74.5,47.2L74.5,47.2z
			 M66.2,68.2H62c-6.8,0-9.7-3-9.7-8.5c0-4.8,2.9-8.2,7.7-8.2c3.7,0,6.2,1.1,6.2,1.1V68.2z"/>
		<path class="st1" d="M179.9,79.5c-2.4,0-4.3,1.9-4.3,4.1c0,2.3,1.9,4.1,4.3,4.1c2.5,0,4.4-1.9,4.4-4.1
			C184.3,81.4,182.4,79.5,179.9,79.5z"/>
		<path class="st1" d="M190.7,79.5c-2.4,0-4.3,1.9-4.3,4.1c0,2.3,1.9,4.1,4.3,4.1s4.3-1.9,4.3-4.1S193.1,79.5,190.7,79.5z"/>
		<path class="st1" d="M271.3,45.1c-11.3,0-16.9,7.1-16.9,14.8c0,4.3,1.2,7.1,3.6,8.7c0,0-1.4-0.4-3.6-0.4h-3h-0.7h-6.3h-0.7h-6h-1
			h-5.5V31.6h-8.6v36.6h-7.3h-0.7h-6.3h-0.7h-6h-1h-5.4V45.9h-8.6v22.3h-11.5h-0.7h-6h-1h-4.3c-0.6-11.7-6.2-17.8-14.3-21.3l15.8-9
			v-8L138.9,45v6c10.3,2.3,15.5,7.7,15.9,17.2h-18.6h-0.7h-6.3h-0.7h-6.3h-0.7h-6.3h-0.7h-6.3h-0.7h-6h-1H95V45.9h-8.6v29.3
			c0,6.6-2.6,8.5-6.9,8.5c-2.1,0-3.8-0.3-5.3-0.7l-0.7,6.4C75.1,89.8,77,90,79,90c13.2,0,16-7.4,16-15.2v-0.2h5.5h1h6h0.7h6.3h0.7
			h6.3h0.7h6.3h0.7h6.3h0.7h31.2h1h6h0.7h25.4h1h6h0.7h6.3h0.7h21.4h1h6h0.7h6.3h0.7H286V59.1C286,50.6,281.5,45.1,271.3,45.1z
			 M277.6,68.2h-4.9c-6.8,0-9.7-2.8-9.7-8.5c0-4.8,2.9-8.2,7.7-8.2c4.3,0,6.9,2.6,6.9,8.6V68.2z"/>
		<ellipse class="st1" cx="270.5" cy="36.3" rx="4.5" ry="4.2"/>
	</g>
</g>
</svg>
