<svg xmlns="http://www.w3.org/2000/svg" xmlns:xlink="http://www.w3.org/1999/xlink" viewBox="0 0 500.07 500"><defs><style>.cls-1{fill:url(#Degradado_sin_nombre_4);}.cls-2{fill:#72b3e3;opacity:0.61;}.cls-3{fill:#7ab8e5;}.cls-4{fill:#82bce7;}.cls-5{fill:#8ec2e9;}.cls-6{fill:#9dcbec;}.cls-7{fill:#a6cfee;}.cls-8{fill:#b5d1db;}.cls-9{fill:#fff;}.cls-10{fill:#d6e2ea;}.cls-11{fill:none;stroke:#fff;stroke-miterlimit:10;stroke-width:2px;stroke-dasharray:5;}</style><linearGradient id="Degradado_sin_nombre_4" x1="79.25" y1="545.75" x2="420.75" y2="-45.75" gradientUnits="userSpaceOnUse"><stop offset="0" stop-color="#5190c5"/><stop offset="1" stop-color="#72b3e3"/></linearGradient></defs><g id="BACKGROUND"><rect class="cls-1" width="500" height="500"/><path class="cls-2" d="M500.07,232.69V131.88a59.45,59.45,0,0,0-40.32,36.42,31.7,31.7,0,0,0-50.91-6.23,59.3,59.3,0,0,0-114.47,19.2,26.49,26.49,0,0,0-28,11.12,41.52,41.52,0,0,0-72.88-13,46.49,46.49,0,0,0-91.22,3.77,26.51,26.51,0,0,0-40.16-3,33.16,33.16,0,0,0-48.1-22.79,26.29,26.29,0,0,0,.29-3.89A26.5,26.5,0,0,0,0,129.91V232.69Z" transform="translate(0 -0.15)"/><path class="cls-3" d="M500.07,302.38V222.17a42.49,42.49,0,0,0-45.69,6.93,59.75,59.75,0,0,0-93.5-33.38c.07-.95.11-1.9.11-2.86a42.48,42.48,0,1,0-82.82,13.29,42.45,42.45,0,0,0-63.32,12.1A28.69,28.69,0,0,0,177.37,217a42.41,42.41,0,0,0-77.48,13.21A59.75,59.75,0,0,0,0,241.73v60.65Z" transform="translate(0 -0.15)"/><path class="cls-4" d="M500.07,354.37V239.82a69.54,69.54,0,0,0-38.89,54.64,45.35,45.35,0,0,0-71.35.35,49.14,49.14,0,0,0-44.42-28.11h-.11c.06-1,.11-1.94.11-2.93a45.37,45.37,0,0,0-90.73-1A69.48,69.48,0,0,0,141,277.49a34,34,0,0,0-44-1.9A45.37,45.37,0,0,0,32,257,45.4,45.4,0,0,0,0,220.25V354.37Z" transform="translate(0 -0.15)"/><path class="cls-5" d="M500.07,427.34V314.78a33,33,0,0,0-38.5,26,33,33,0,0,0-42-4.95,50.17,50.17,0,0,0-89.47-18.13A44.89,44.89,0,0,0,242.2,329a33,33,0,0,0-48.77,11.61A50.18,50.18,0,0,0,137,326a33.35,33.35,0,0,0,.84-7.39,33,33,0,0,0-63.68-12.24A50.17,50.17,0,0,0,0,298.42V427.34Z" transform="translate(0 -0.15)"/><path class="cls-6" d="M500.07,480.42V368.18a72.56,72.56,0,0,0-51.2,31,45.12,45.12,0,0,0-60,18.61,30.7,30.7,0,0,0-32.06-7.38,45.59,45.59,0,0,0,1.33-10.91,45.11,45.11,0,0,0-88.2-13.34,30.73,30.73,0,0,0-47.53,10,45.09,45.09,0,0,0-80.4,23.5,72.57,72.57,0,0,0-97.81-11.73A45.1,45.1,0,0,0,0,372V480.42Z" transform="translate(0 -0.15)"/><path class="cls-7" d="M500.07,500.07V378.65a38.41,38.41,0,0,0-20.77,34.12,38.8,38.8,0,0,0,.41,5.64,48,48,0,0,0-69.65,33,38.39,38.39,0,0,0-58.16,4.29,67.33,67.33,0,0,0-132.11-5.46,60.12,60.12,0,0,0-105.53,18.89A38.42,38.42,0,0,0,65,456.21,60.13,60.13,0,0,0,7.19,412.77a58.93,58.93,0,0,0-7.19.45v86.85Z" transform="translate(0 -0.15)"/></g><g id="OBJECTS"><path class="cls-8" d="M401.9,236.47l8.16,24.94a2.65,2.65,0,0,0,4.2,1.22l24.35-20.11s-25.88-10.09-25.88-9.54S401.9,236.47,401.9,236.47Z" transform="translate(0 -0.15)"/><path class="cls-9" d="M466.15,188.54c-15.9,6.29-67.23,27.32-86.66,35.29a3,3,0,0,0,.23,5.57l22.18,7.07L410,261.33a2.7,2.7,0,0,0,2.08,1.82c.74.14,1.85-20.14,1.85-20.14s23.31,17.3,34.37,25.46a4.61,4.61,0,0,0,7.27-2.82c3.29-17,11.53-59.44,14.35-74A2.81,2.81,0,0,0,466.15,188.54Z" transform="translate(0 -0.15)"/><path class="cls-10" d="M412.11,263.15c.74.14,1.85-20.14,1.85-20.14l38.3-36a.29.29,0,0,0-.35-.47l-50,29.91L410,261.33A2.7,2.7,0,0,0,412.11,263.15Z" transform="translate(0 -0.15)"/><path class="cls-11" d="M279.37,312c26.31-.08,61.29-14.91,68.31-43.4,2.83-11.5.32-23.82-8.8-32.21-11.51-10.61-24.16-.92-21,13.88,5.11,24.32,34.8,42.32,57.37,42.58,13.05.14,25.28-6.11,30-18.89" transform="translate(0 -0.15)"/></g></svg>